<svg class="svg-icon" style="width: 1em; height: 1em;vertical-align: middle;fill: currentColor;overflow: hidden;" version="1.1" id="Capa_1" xmlns="http://www.w3.org/2000/svg" xmlns:xlink="http://www.w3.org/1999/xlink"
	 viewBox="0 0 866.052 866.052"
	 xml:space="preserve">
<g>
	<path d="M527.728,221.528c10.232,10.11,23.567,15.155,36.898,15.155c13.541,0,27.078-5.207,37.347-15.6
		c20.379-20.625,20.18-53.866-0.445-74.245L468.256,15.155C447.631-5.224,414.39-5.025,394.011,15.6L264.099,147.081
		c-20.379,20.625-20.18,53.866,0.445,74.245s53.865,20.18,74.245-0.445l41.726-42.23v377.365l0.03,1.788
		c0.009,0.264,0.334,28.105-12.207,67.585c-18.004,56.68-51.96,106.53-100.922,148.167c-22.089,18.784-24.769,51.917-5.984,74.005
		c10.385,12.211,25.155,18.491,40.02,18.491c12.023,0,24.108-4.106,33.985-12.506c148.523-126.3,150.344-281.121,150.079-298.022
		V179.819L527.728,221.528z"/>
</g>
</svg>