<?xml version="1.0" encoding="iso-8859-1"?>
<!-- Uploaded to: SVG Repo, www.svgrepo.com, Generator: SVG Repo Mixer Tools -->
<svg fill="#000000" height="800px" width="800px" version="1.1" id="Layer_1" xmlns="http://www.w3.org/2000/svg" xmlns:xlink="http://www.w3.org/1999/xlink" 
	 viewBox="0 0 512 512" xml:space="preserve">
<g>
	<g>
		<path d="M367.041,96.676l-86.519-86.518C273.972,3.607,265.264,0,256,0c-9.264,0-17.972,3.607-24.522,10.157L144.96,96.675
			c-6.55,6.55-10.157,15.259-10.157,24.522c0,9.263,3.606,17.971,10.156,24.521s15.259,10.157,24.522,10.157h43.178v312.785
			C212.659,492.557,232.102,512,256,512s43.341-19.442,43.341-43.339V155.876h43.178c19.121,0,34.678-15.557,34.678-34.677
			C377.198,111.935,373.591,103.226,367.041,96.676z M342.519,135.478h-53.378c-5.633,0-10.199,4.567-10.199,10.199v322.983
			c0,12.649-10.291,22.941-22.942,22.941c-12.651,0-22.942-10.292-22.942-22.941V145.676c0-5.632-4.566-10.199-10.199-10.199
			h-53.378c-3.814,0-7.4-1.486-10.097-4.183c-2.698-2.697-4.183-6.283-4.183-10.097s1.486-7.4,4.183-10.097l86.519-86.519
			c2.697-2.698,6.283-4.183,10.097-4.183s7.401,1.485,10.097,4.184l86.519,86.519c2.698,2.697,4.183,6.283,4.183,10.097
			C356.799,129.072,350.393,135.478,342.519,135.478z"/>
	</g>
</g>
<g>
	<g>
		<path d="M208.255,88.319c-3.983-3.984-10.44-3.986-14.424-0.002l-1.494,1.494c-3.983,3.983-3.985,10.441-0.002,14.425
			c1.991,1.992,4.602,2.988,7.213,2.988c2.609,0,5.219-0.995,7.211-2.986l1.494-1.494C212.236,98.761,212.238,92.303,208.255,88.319
			z"/>
	</g>
</g>
<g>
	<g>
		<path d="M262.193,34.38c-3.984-3.982-10.442-3.982-14.425,0l-31.192,31.192c-3.983,3.984-3.983,10.442,0,14.425
			c1.991,1.991,4.602,2.987,7.212,2.987c2.61,0,5.221-0.995,7.213-2.987l31.192-31.192C266.176,44.821,266.176,38.363,262.193,34.38
			z"/>
	</g>
</g>
</svg>