<svg class="svg-icon" style="width: 1em; height: 1em;vertical-align: middle;fill: currentColor;overflow: hidden;" version="1.1" id="Layer_1" xmlns="http://www.w3.org/2000/svg" xmlns:xlink="http://www.w3.org/1999/xlink"
	 viewBox="0 0 512 512" xml:space="preserve">
<g>
	<g>
		<g>
			<path d="M320,149.333v-42.667C320,83.109,300.891,64,277.333,64h-42.667C211.109,64,192,83.109,192,106.667v42.667
				C192,172.891,211.109,192,234.667,192h42.667C300.891,192,320,172.891,320,149.333z M277.333,149.333h-42.667v-42.667h42.667
				V149.333z"/>
			<path d="M170.667,192H128c-23.558,0-42.667,19.109-42.667,42.667v42.667C85.333,300.891,104.442,320,128,320h42.667
				c23.558,0,42.667-19.109,42.667-42.667v-42.667C213.333,211.109,194.225,192,170.667,192z M170.667,277.333H128v-42.667h42.667
				V277.333z"/>
			<path d="M85.333,320H42.667C19.109,320,0,339.109,0,362.667v42.667C0,428.891,19.109,448,42.667,448h42.667
				C108.891,448,128,428.891,128,405.333v-42.667C128,339.109,108.891,320,85.333,320z M85.333,405.333H42.667v-42.667h42.667
				V405.333z"/>
			<path d="M469.333,320h-42.667C403.109,320,384,339.109,384,362.667v42.667C384,428.891,403.109,448,426.667,448h42.667
				C492.891,448,512,428.891,512,405.333v-42.667C512,339.109,492.891,320,469.333,320z M469.333,405.333h-42.667v-42.667h42.667
				V405.333z"/>
			<path d="M426.667,277.333v-42.667C426.667,211.109,407.558,192,384,192h-42.667c-23.558,0-42.667,19.109-42.667,42.667v42.667
				c0,23.558,19.109,42.667,42.667,42.667H384C407.558,320,426.667,300.891,426.667,277.333z M341.333,234.667H384v42.667h-42.667
				V234.667z"/>
		</g>
	</g>
</g>
</svg>