<svg class="svg-icon" style="width: 1em; height: 1em;vertical-align: middle;fill: currentColor;overflow: hidden;" version="1.1" id="Layer_1" xmlns="http://www.w3.org/2000/svg" xmlns:xlink="http://www.w3.org/1999/xlink"
	 viewBox="0 0 512.001 512.001" xml:space="preserve">
<g>
	<g>
		<path d="M467.005,444.243L281.836,279.011c-14.727-13.141-36.942-13.141-51.672,0.001L44.996,444.243
			c-12.118,10.812-16.208,27.604-10.422,42.778c5.786,15.175,20.019,24.98,36.259,24.98h370.337c16.241,0,30.473-9.804,36.259-24.98
			C483.213,471.847,479.122,455.056,467.005,444.243z M458.367,479.754c-2.184,5.728-7.849,11.848-17.199,11.848H70.832
			c-9.349,0-15.014-6.12-17.199-11.848c-2.184-5.728-2.033-14.067,4.944-20.292l185.169-165.229
			c3.494-3.118,7.874-4.676,12.255-4.676c4.381,0,8.762,1.558,12.255,4.675l185.168,165.231
			C460.4,465.686,460.551,474.026,458.367,479.754z"/>
	</g>
</g>
<g>
	<g>
		<path d="M467.005,175.088L281.836,9.856c-14.728-13.141-36.942-13.143-51.672,0.001L44.996,175.089
			c-12.118,10.812-16.208,27.604-10.422,42.778c5.786,15.175,20.019,24.98,36.259,24.98h370.337
			c16.241,0,30.473-9.804,36.259-24.981C483.213,202.691,479.122,185.901,467.005,175.088z M458.367,210.599
			c-2.184,5.728-7.849,11.848-17.199,11.848H70.832c-9.349,0-15.014-6.12-17.199-11.848c-2.184-5.728-2.033-14.067,4.944-20.292
			l185.169-165.23c3.494-3.118,7.874-4.676,12.255-4.676c4.381,0,8.762,1.559,12.255,4.675l185.168,165.231
			C460.4,196.531,460.551,204.871,458.367,210.599z"/>
	</g>
</g>
<g>
	<g>
		<path d="M154.952,135.002c-3.749-4.204-10.196-4.57-14.4-0.821L136,138.242c-4.203,3.75-4.57,10.198-0.82,14.4
			c2.015,2.259,4.808,3.41,7.614,3.41c2.416,0,4.843-0.854,6.786-2.589l4.552-4.061
			C158.335,145.652,158.702,139.204,154.952,135.002z"/>
	</g>
</g>
<g>
	<g>
		<path d="M261.602,39.834c-3.75-4.201-10.198-4.57-14.4-0.819l-78.676,70.204c-4.203,3.75-4.57,10.197-0.82,14.4
			c2.015,2.258,4.808,3.409,7.614,3.409c2.416,0,4.843-0.854,6.786-2.59l78.676-70.205
			C264.985,50.484,265.352,44.037,261.602,39.834z"/>
	</g>
</g>
</svg>