<svg class="svg-icon" style="width: 1em;height: 1em;vertical-align: middle;fill: currentColor;overflow: hidden;" viewBox="0 0 1024 1024" version="1.1" xmlns="http://www.w3.org/2000/svg"><path d="M166.9 440.8c16.5 16.5 43.2 16.5 59.7 0l276.9-276.9 293.9 255.8c16.5 16.5 43.2 16.5 59.7 0s16.5-43.2 0-59.7L531.3 76.4c-16.5-16.5-43.2-16.5-59.7 0L166.9 381.1c-16.5 16.4-16.5 43.2 0 59.7z m352.5 224.8c-4.1-4.1-10.8-4.1-14.9 0L228.1 942c-4.1 4.1-4.1 10.8 0 14.9s10.8 4.1 14.9 0L511.9 688l268.9 268.9c4.1 4.1 10.8 4.1 14.9 0s4.1-10.8 0-14.9L519.4 665.6z m7.6-174.5c-8.2-8.2-21.4-8.2-29.6 0l-316.9 317c-8.2 8.2-8.2 21.4 0 29.6 8.2 8.2 21.4 8.2 29.6 0l302.1-302.2 302.1 302.2c8.2 8.2 21.4 8.2 29.6 0 8.2-8.2 8.2-21.4 0-29.6L527 491.1z m7.2-193.9c-12.4-12.4-32.4-12.4-44.8 0L175.9 610.6c-12.4 12.4-12.4 32.4 0 44.8 12.4 12.4 32.4 12.4 44.8 0l291.1-291.1 291.1 291.1c12.4 12.4 32.4 12.4 44.8 0 12.4-12.4 12.4-32.4 0-44.8L534.2 297.2z" fill="#040000" /></svg>