<?xml version="1.0" encoding="iso-8859-1"?>
<!-- Uploaded to: SVG Repo, www.svgrepo.com, Generator: SVG Repo Mixer Tools -->
<!DOCTYPE svg PUBLIC "-//W3C//DTD SVG 1.1//EN" "http://www.w3.org/Graphics/SVG/1.1/DTD/svg11.dtd">
<svg fill="#000000" version="1.1" id="Capa_1" xmlns="http://www.w3.org/2000/svg" xmlns:xlink="http://www.w3.org/1999/xlink" 
	 width="800px" height="800px" viewBox="0 0 256.332 256.333"
	 xml:space="preserve">
<g>
	<path d="M40.208,256.321h81.812V106.117l-43.823,43.817c-2.405,2.408-6.29,2.408-8.695,0s-2.405-6.287,0-8.695l54.319-54.308
		c0.564-0.57,1.249-1.021,1.994-1.333c0.753-0.309,1.549-0.474,2.354-0.474s1.598,0.166,2.354,0.474
		c0.744,0.312,1.423,0.763,1.993,1.333l54.313,54.308c2.402,2.408,2.402,6.287,0,8.695s-6.293,2.408-8.695,0l-43.816-43.817v150.216
		h81.803c22.164,0,40.202-18.05,40.202-40.22V40.205C256.323,18.042,238.285,0,216.121,0H40.208C18.041,0,0.009,18.042,0.009,40.205
		v175.908C0.009,238.283,18.041,256.321,40.208,256.321z"/>
</g>
</svg>