<svg class="svg-icon" style="width: 1em; height: 1em;vertical-align: middle;fill: currentColor;overflow: hidden;" version="1.1" id="Layer_1" xmlns="http://www.w3.org/2000/svg" xmlns:xlink="http://www.w3.org/1999/xlink"
	 viewBox="0 0 512 512" xml:space="preserve">
<g>
	<g>
		<path d="M416,145.043L281.533,10.577C274.712,3.756,265.644,0,256,0s-18.712,3.756-25.534,10.577L95.999,145.043
			c-6.819,6.821-10.576,15.888-10.576,25.534c0,19.911,16.198,36.109,36.109,36.109h89.279v260.126
			C210.811,491.729,231.082,512,256,512s45.189-20.271,45.189-45.19V206.686h89.279c19.911,0,36.109-16.198,36.109-36.109
			C426.577,160.932,422.821,151.864,416,145.043z M390.467,186.287h-99.478c-5.632,0-10.199,4.566-10.199,10.199v270.325
			c0,13.669-11.121,24.79-24.79,24.79s-24.79-11.121-24.791-24.791V196.487c0-5.633-4.567-10.199-10.199-10.199h-99.478
			c-8.663,0-15.711-7.048-15.711-15.711c0-4.197,1.635-8.143,4.602-11.11L244.889,25c2.969-2.967,6.915-4.602,11.111-4.602
			c4.196,0,8.142,1.635,11.109,4.602l134.466,134.466c2.968,2.968,4.603,6.914,4.603,11.11
			C406.178,179.24,399.13,186.287,390.467,186.287z"/>
	</g>
</g>
<g>
	<g>
		<path d="M349.906,117.444l-2.266-2.266c-3.985-3.983-10.441-3.983-14.425,0c-3.983,3.984-3.983,10.442,0,14.425l2.266,2.266
			c1.992,1.992,4.601,2.987,7.212,2.987s5.22-0.995,7.213-2.987C353.889,127.885,353.889,121.427,349.906,117.444z"/>
	</g>
</g>
<g>
	<g>
		<path d="M324.526,92.231L264.86,32.565c-3.984-3.983-10.44-3.982-14.425,0c-3.983,3.983-3.983,10.441,0,14.424l59.666,59.666
			c1.992,1.992,4.601,2.987,7.212,2.987c2.61,0,5.22-0.995,7.213-2.986C328.509,102.672,328.509,96.215,324.526,92.231z"/>
	</g>
</g>
</svg>