<svg class="svg-icon" style="width: 1em; height: 1em;vertical-align: middle;fill: currentColor;overflow: hidden;" version="1.1" id="Layer_1" xmlns="http://www.w3.org/2000/svg" xmlns:xlink="http://www.w3.org/1999/xlink"
	 viewBox="0 0 512 512" xml:space="preserve">
<g transform="translate(1 1)">
	<g>
		<g>
			<path d="M316.793,149.069c0-34.428-27.366-61.793-61.793-61.793c-34.428,0-61.793,27.365-61.793,61.793
				c0,34.428,27.365,61.793,61.793,61.793C289.428,210.862,316.793,183.497,316.793,149.069z M255,193.207
				c-24.717,0-44.138-19.421-44.138-44.138s19.421-44.138,44.138-44.138s44.138,19.421,44.138,44.138S279.717,193.207,255,193.207z"
				/>
			<path d="M157.897,193.207c-34.428,0-61.793,27.366-61.793,61.793c0,34.428,27.366,61.793,61.793,61.793
				c34.428,0,61.793-27.365,61.793-61.793C219.69,220.572,192.324,193.207,157.897,193.207z M157.897,299.138
				c-24.717,0-44.138-19.421-44.138-44.138s19.421-44.138,44.138-44.138s44.138,19.421,44.138,44.138
				S182.614,299.138,157.897,299.138z"/>
			<path d="M60.793,299.138C26.366,299.138-1,326.503-1,360.931s27.366,61.793,61.793,61.793c34.428,0,61.793-27.365,61.793-61.793
				C122.586,326.503,95.221,299.138,60.793,299.138z M60.793,405.069c-24.717,0-44.138-19.421-44.138-44.138
				s19.421-44.138,44.138-44.138c24.717,0,44.138,19.421,44.138,44.138S85.51,405.069,60.793,405.069z"/>
			<path d="M413.897,255c0-34.428-27.365-61.793-61.793-61.793S290.31,220.572,290.31,255c0,34.428,27.365,61.793,61.793,61.793
				S413.897,289.428,413.897,255z M352.103,299.138c-24.717,0-44.138-19.421-44.138-44.138s19.421-44.138,44.138-44.138
				s44.138,19.421,44.138,44.138S376.821,299.138,352.103,299.138z"/>
			<path d="M449.207,299.138c-34.428,0-61.793,27.365-61.793,61.793s27.365,61.793,61.793,61.793S511,395.359,511,360.931
				C511,326.503,483.635,299.138,449.207,299.138z M449.207,405.069c-24.717,0-44.138-19.421-44.138-44.138
				s19.421-44.138,44.138-44.138s44.138,19.421,44.138,44.138S473.924,405.069,449.207,405.069z"/>
		</g>
	</g>
</g>
</svg>