<svg class="svg-icon" style="width: 1em; height: 1em;vertical-align: middle;fill: currentColor;overflow: hidden;" viewBox="0 0 1024 1024" version="1.1" xmlns="http://www.w3.org/2000/svg"><path d="M782.336 317.44C716.8 218.112 593.92 53.248 509.952 53.248c-83.968 0-206.848 165.888-272.384 264.192-21.504 31.744-17.408 64.512 11.264 89.088 40.96 35.84 140.288 55.296 242.688 57.344V952.32c0 11.264 9.216 20.48 20.48 20.48s20.48-9.216 20.48-20.48V463.872c101.376-2.048 198.656-21.504 239.616-57.344 27.648-25.6 31.744-57.344 10.24-89.088z m-37.888 57.344c-72.704 63.488-396.288 63.488-468.992 0-12.288-11.264-13.312-20.48-4.096-34.816 120.832-181.248 203.776-245.76 238.592-245.76 33.792 0 116.736 64.512 238.592 245.76 9.216 14.336 8.192 24.576-4.096 34.816z"  /></svg>