<?xml version="1.0" encoding="iso-8859-1"?>
<!-- Uploaded to: SVG Repo, www.svgrepo.com, Generator: SVG Repo Mixer Tools -->
<!DOCTYPE svg PUBLIC "-//W3C//DTD SVG 1.1//EN" "http://www.w3.org/Graphics/SVG/1.1/DTD/svg11.dtd">
<svg fill="#000000" version="1.1" id="Capa_1" xmlns="http://www.w3.org/2000/svg" xmlns:xlink="http://www.w3.org/1999/xlink" 
	 width="800px" height="800px" viewBox="0 0 63.548 63.548"
	 xml:space="preserve">
<g>
	<path d="M32.647,19.399V4.471l10.55,10.543c0.23,0.229,0.529,0.342,0.826,0.342c0.296,0,0.598-0.115,0.825-0.342
		c0.457-0.455,0.457-1.195,0-1.65L32.309,0.827c0,0,0,0,0-0.002L31.482,0l-0.825,0.824c-0.002,0-0.002,0-0.004,0.002L18.12,13.363
		c-0.457,0.455-0.457,1.195,0,1.65c0.453,0.457,1.195,0.457,1.65,0L30.314,4.471v14.956C18.811,20.184,9.675,29.759,9.675,41.451
		c0,12.184,9.914,22.097,22.099,22.097c12.186,0,22.1-9.913,22.1-22.097C53.87,29.562,44.425,19.863,32.647,19.399z M31.771,61.215
		c-10.896,0-19.763-8.864-19.763-19.761c0-10.406,8.089-18.937,18.303-19.689v18.469c0,0.644,0.524,1.168,1.168,1.168
		c0.645,0,1.168-0.524,1.168-1.168V21.737c10.488,0.462,18.888,9.116,18.888,19.719C51.535,52.351,42.668,61.215,31.771,61.215z"/>
</g>
</svg>