<svg class="svg-icon" style="width: 1em;height: 1em;vertical-align: middle;fill: currentColor;overflow: hidden;" viewBox="0 0 1024 1024" version="1.1" xmlns="http://www.w3.org/2000/svg"><path d="M213.8 415.7L512 117.6l298.2 298.1c8.7 8.7 22.7 8.7 31.4 0s8.7-22.7 0-31.4L527.7 70.5c-8.7-8.7-22.7-8.7-31.4 0L182.4 384.3c-8.7 8.7-8.7 22.7 0 31.4 8.6 8.7 22.7 8.7 31.4 0z m313.9-165.9c-8.7-8.7-22.7-8.7-31.4 0L182.4 563.6c-8.7 8.7-8.7 22.7 0 31.4 8.7 8.6 22.7 8.6 31.4 0L512 296.8 810.2 595c8.7 8.6 22.7 8.6 31.4 0 8.7-8.7 8.7-22.7 0-31.4L527.7 249.8z m0 179.2c-8.7-8.7-22.7-8.7-31.4 0L182.4 742.9c-8.7 8.7-8.7 22.7 0 31.4s22.7 8.7 31.4 0L512 476.1l298.2 298.1c8.7 8.7 22.7 8.7 31.4 0s8.7-22.7 0-31.4L527.7 429z m0 179.3c-8.7-8.7-22.7-8.7-31.4 0L182.4 922.1c-8.7 8.7-8.7 22.7 0 31.4s22.7 8.7 31.4 0L512 655.4l298.2 298.1c8.7 8.7 22.7 8.7 31.4 0s8.7-22.7 0-31.4L527.7 608.3z" fill="#040000" /></svg>