<svg class="svg-icon" style="width: 1em; height: 1em;vertical-align: middle;fill: currentColor;overflow: hidden;" version="1.1" id="Layer_1" xmlns="http://www.w3.org/2000/svg" xmlns:xlink="http://www.w3.org/1999/xlink"
	 viewBox="0 0 512 512" xml:space="preserve">
<g>
	<g>
		<path d="M277.333,64h-42.667C211.136,64,192,83.136,192,106.667v42.667c0,23.53,19.136,42.666,42.667,42.666h42.667
			c23.53,0,42.666-19.136,42.666-42.667v-42.667C320,83.136,300.864,64,277.333,64z"/>
	</g>
</g>
<g>
	<g>
		<path d="M170.667,192H128c-23.531,0-42.667,19.136-42.667,42.667v42.667C85.333,300.864,104.469,320,128,320h42.667
			c23.531,0,42.667-19.136,42.667-42.667v-42.667C213.333,211.136,194.197,192,170.667,192z"/>
	</g>
</g>
<g>
	<g>
		<path d="M85.333,320H42.667C19.136,320,0,339.136,0,362.667v42.667C0,428.864,19.136,448,42.667,448h42.667
			c23.53,0,42.666-19.136,42.666-42.667v-42.667C128,339.136,108.864,320,85.333,320z"/>
	</g>
</g>
<g>
	<g>
		<path d="M469.333,320h-42.667C403.136,320,384,339.136,384,362.667v42.667c0,23.53,19.136,42.666,42.667,42.666h42.667
			c23.53,0,42.666-19.136,42.666-42.667v-42.667C512,339.136,492.864,320,469.333,320z"/>
	</g>
</g>
<g>
	<g>
		<path d="M384,192h-42.667c-23.531,0-42.667,19.136-42.667,42.667v42.667c0,23.531,19.136,42.667,42.667,42.667H384
			c23.531-0.001,42.667-19.137,42.667-42.668v-42.667C426.667,211.136,407.531,192,384,192z"/>
	</g>
</g>
</svg>